<?xml version="1.0" encoding="utf-8"?>
<!-- Generator: Adobe Illustrator 16.0.0, SVG Export Plug-In . SVG Version: 6.00 Build 0)  -->
<!DOCTYPE svg PUBLIC "-//W3C//DTD SVG 1.1//EN" "http://www.w3.org/Graphics/SVG/1.1/DTD/svg11.dtd">
<svg version="1.1" id="Layer_1" xmlns="http://www.w3.org/2000/svg" xmlns:xlink="http://www.w3.org/1999/xlink" x="0px" y="0px"
	 width="287px" height="390px" viewBox="0 0 287 390" enable-background="new 0 0 287 390" xml:space="preserve" >
<path fill="#7BA0A9" d="M237,390H50c-27.614,0-50-22.386-50-50V50C0,22.386,22.386,0,50,0h187c27.614,0,50,22.386,50,50v290
	C287,367.614,264.614,390,237,390z M233.02,71.708c0-1.703-0.245-3.348-0.692-4.906h-0.001c-0.072-0.253-0.15-0.504-0.234-0.753
	c-0.002-0.004-0.003-0.009-0.005-0.013c-0.084-0.249-0.173-0.494-0.268-0.738c-1.795-4.624-5.471-8.304-10.091-10.1
	c-0.241-0.094-0.484-0.182-0.73-0.266c-0.015-0.005-0.028-0.01-0.043-0.014c-0.233-0.079-0.469-0.152-0.706-0.221
	c-0.032-0.009-0.064-0.019-0.098-0.027c-0.222-0.063-0.445-0.123-0.67-0.177c-0.055-0.013-0.11-0.025-0.165-0.038
	c-0.207-0.048-0.415-0.093-0.624-0.134c-0.081-0.016-0.163-0.029-0.244-0.043c-0.188-0.034-0.376-0.067-0.566-0.094
	c-0.113-0.017-0.228-0.029-0.341-0.043c-0.163-0.021-0.326-0.042-0.491-0.058c-0.158-0.016-0.318-0.025-0.479-0.037
	c-0.124-0.008-0.248-0.021-0.374-0.026c-0.289-0.014-0.58-0.022-0.873-0.022H203.18v0.009c-0.115-0.002-0.23-0.009-0.347-0.009
	c-4.71,0-8.987,1.845-12.157,4.849l-0.009-0.008L143.5,106.048L96.333,58.837l-0.008,0.008c-3.171-3.003-7.448-4.849-12.158-4.849
	c-0.116,0-0.231,0.006-0.347,0.009v-0.009H71.676c-0.292,0-0.583,0.008-0.873,0.022c-0.125,0.006-0.25,0.018-0.375,0.026
	c-0.16,0.011-0.32,0.021-0.478,0.037c-0.165,0.016-0.328,0.038-0.491,0.058c-0.114,0.014-0.228,0.027-0.341,0.043
	c-0.19,0.027-0.378,0.061-0.566,0.094c-0.082,0.015-0.163,0.028-0.244,0.043c-0.21,0.041-0.417,0.086-0.625,0.134
	c-0.055,0.013-0.109,0.025-0.164,0.038c-0.226,0.054-0.449,0.114-0.671,0.177c-0.032,0.009-0.065,0.018-0.097,0.027
	c-0.238,0.069-0.473,0.143-0.706,0.221c-0.014,0.004-0.028,0.009-0.042,0.014c-4.961,1.681-8.934,5.5-10.822,10.366
	c-0.111,0.287-0.215,0.577-0.312,0.871c-0.001,0.003-0.002,0.007-0.003,0.01c-0.097,0.295-0.187,0.593-0.268,0.894
	c-0.4,1.478-0.617,3.031-0.617,4.636v116.346h35.392V101.88l41.224,41.262l0.011-0.008c3.241,3.288,7.742,5.327,12.72,5.327
	c5.199,0,9.878-2.225,13.143-5.772l0.021,0.02l41.138-41.177v86.521h35.392V71.708z M233.02,201.946h-35.392v7.293v79.228v12.581
	l-41.386-71.75l-0.057,0.026c-2.371-4.702-7.237-7.93-12.859-7.93c-4.348,0-8.244,1.931-10.883,4.981l-43.072,74.672v-12.929v-78.88
	v-7.293H53.98v116.345c0,1.604,0.217,3.158,0.617,4.636c0.082,0.302,0.171,0.6,0.268,0.895c0.001,0.004,0.002,0.007,0.003,0.011
	c0.097,0.293,0.201,0.583,0.312,0.87c1.889,4.865,5.861,8.686,10.822,10.366c0.014,0.005,0.028,0.009,0.042,0.014
	c0.233,0.079,0.468,0.152,0.706,0.221c0.032,0.01,0.065,0.019,0.097,0.028c0.222,0.062,0.445,0.122,0.671,0.176
	c0.055,0.014,0.109,0.025,0.164,0.038c0.208,0.048,0.415,0.094,0.625,0.135c0.081,0.016,0.162,0.028,0.244,0.043
	c0.188,0.034,0.376,0.066,0.566,0.095c0.113,0.017,0.227,0.028,0.341,0.043c0.164,0.021,0.326,0.042,0.491,0.059
	c0.158,0.015,0.318,0.024,0.478,0.036c0.125,0.009,0.249,0.021,0.375,0.026c0.29,0.015,0.581,0.022,0.873,0.022h8.328h3.817h5.551
	h1.735h8.328c6.477,0,12.139-3.485,15.223-8.683h0.156l28.687-49.733l29.735,51.551c3.236,4.176,8.295,6.865,13.983,6.865h7.287
	h3.122h5.552h3.123h9.021c0.293,0,0.584-0.008,0.873-0.022c0.126-0.006,0.25-0.018,0.374-0.026c0.16-0.012,0.32-0.021,0.479-0.036
	c0.165-0.017,0.328-0.038,0.491-0.059c0.113-0.015,0.228-0.026,0.341-0.043c0.19-0.028,0.378-0.061,0.566-0.095
	c0.081-0.015,0.163-0.027,0.244-0.043c0.209-0.041,0.417-0.087,0.624-0.135c0.055-0.013,0.11-0.024,0.165-0.038
	c0.225-0.054,0.448-0.113,0.67-0.176c0.033-0.01,0.065-0.019,0.098-0.028c0.237-0.068,0.473-0.142,0.706-0.221
	c0.015-0.005,0.028-0.009,0.043-0.014c0.246-0.084,0.489-0.172,0.73-0.266c4.62-1.797,8.296-5.477,10.091-10.101
	c0.095-0.243,0.184-0.489,0.268-0.738c0.002-0.004,0.003-0.009,0.005-0.013c0.084-0.249,0.162-0.5,0.234-0.754h0.001
	c0.447-1.559,0.692-3.203,0.692-4.906V201.946z"/>
</svg>
